<?xml version="1.0" standalone="no"?>
<!DOCTYPE svg PUBLIC "-//W3C//DTD SVG 20010904//EN"
 "http://www.w3.org/TR/2001/REC-SVG-20010904/DTD/svg10.dtd">
<svg version="1.0" xmlns="http://www.w3.org/2000/svg"
 width="150.000000pt" height="150.000000pt" viewBox="0 0 150.000000 150.000000"
 preserveAspectRatio="xMidYMid meet">
<g transform="translate(0.000000,150.000000) scale(0.100000,-0.100000)"
fill="#000000" stroke="none">
<path d="M620 1481 c0 -6 4 -13 10 -16 6 -3 7 1 4 9 -7 18 -14 21 -14 7z"/>
<path d="M713 1453 c-14 -5 -17 -71 -5 -91 13 -20 42 -3 42 24 0 30 -17 31
-23 2 -2 -13 -5 -5 -5 17 0 22 2 34 5 28 6 -17 23 -16 23 1 0 16 -19 25 -37
19z"/>
<path d="M770 1410 c0 -35 4 -50 16 -54 9 -4 20 -3 23 0 3 4 0 9 -6 11 -16 6
-17 33 -2 33 8 0 8 5 -1 15 -9 10 -9 15 -1 15 19 0 12 17 -9 23 -18 5 -20 0
-20 -43z"/>
<path d="M648 1444 c-3 -3 -4 -23 -1 -45 4 -23 2 -39 -5 -39 -12 0 -22 24 -22
56 0 15 -6 24 -15 24 -18 0 -18 0 -4 -56 11 -44 12 -44 48 -38 44 8 50 12 31
25 -13 8 -13 10 0 19 12 8 12 12 2 18 -7 5 -10 16 -6 25 6 16 -15 25 -28 11z"/>
<path d="M846 1425 c-12 -31 -6 -75 10 -82 22 -8 32 6 36 52 3 34 0 40 -18 43
-13 2 -24 -4 -28 -13z m28 -32 c-10 -40 -14 -41 -14 -5 0 18 5 32 10 32 6 0 8
-11 4 -27z"/>
<path d="M553 1423 c-16 -6 14 -93 33 -93 8 0 14 5 14 10 0 6 -4 10 -9 10 -4
0 -12 17 -17 39 -5 22 -14 36 -21 34z"/>
<path d="M911 1393 c-14 -48 -14 -63 -1 -63 6 0 10 7 10 15 0 9 7 18 15 21 12
5 13 10 4 20 -9 11 -8 14 5 14 21 0 21 16 0 24 -23 9 -22 9 -33 -31z"/>
<path d="M491 1396 c-18 -21 11 -86 38 -86 24 0 27 20 10 69 -12 33 -29 40
-48 17z m33 -32 c10 -38 0 -41 -12 -5 -6 17 -7 31 -3 31 5 0 12 -12 15 -26z"/>
<path d="M976 1359 c-9 -23 -16 -43 -14 -44 2 -1 14 -8 27 -15 21 -11 26 -10
39 6 13 18 14 17 8 -8 -10 -42 11 -34 34 13 23 43 19 66 -4 33 -13 -17 -14
-17 -9 9 8 41 -11 33 -32 -14 -16 -33 -20 -37 -28 -23 -6 11 -5 19 3 24 7 4 9
13 6 19 -4 6 0 11 9 11 20 0 14 24 -7 28 -10 2 -21 -12 -32 -39z"/>
<path d="M433 1373 c-19 -7 -16 -47 5 -74 22 -26 52 -20 52 11 0 24 -20 27
-20 3 -1 -16 -2 -16 -15 1 -8 11 -15 27 -15 35 0 14 2 14 10 1 11 -18 25 -7
17 15 -7 15 -13 17 -34 8z"/>
<path d="M1098 1323 c-33 -38 -38 -59 -18 -75 13 -12 21 -13 29 -5 14 14 14
37 1 37 -5 0 -10 -4 -10 -10 0 -5 -5 -10 -10 -10 -6 0 -3 11 6 25 15 23 18 24
29 9 11 -15 12 -15 18 -1 3 9 -1 23 -9 32 -19 19 -18 19 -36 -2z"/>
<path d="M360 1322 c0 -16 52 -82 60 -77 11 7 -37 85 -51 85 -5 0 -9 -3 -9 -8z"/>
<path d="M322 1288 c-17 -17 -15 -22 14 -57 31 -38 24 -40 -20 -6 -27 21 -35
23 -44 12 -9 -10 -5 -22 15 -50 25 -35 43 -47 43 -29 0 5 -9 19 -20 32 -28 32
-25 38 5 10 24 -23 25 -23 45 -5 19 17 19 19 4 37 -10 10 -14 18 -9 18 4 0 14
-8 21 -17 7 -10 15 -15 19 -11 7 6 -44 78 -55 78 -4 0 -11 -5 -18 -12z m23
-18 c3 -5 1 -10 -4 -10 -6 0 -11 5 -11 10 0 6 2 10 4 10 3 0 8 -4 11 -10z"/>
<path d="M1135 1254 c-15 -19 -24 -38 -20 -42 7 -7 65 56 65 70 0 18 -19 6
-45 -28z"/>
<path d="M1167 1235 c-32 -40 -36 -56 -7 -30 11 10 20 13 20 7 0 -6 -4 -14
-10 -17 -5 -3 -10 -14 -10 -23 0 -12 10 -6 37 20 20 21 33 41 29 45 -5 4 -11
2 -13 -4 -3 -7 -9 -13 -15 -13 -6 0 -5 6 2 15 8 10 10 19 4 25 -6 6 -20 -4
-37 -25z"/>
<path d="M644 1202 c-142 -50 -241 -182 -252 -334 l-5 -68 -124 0 -125 0 6
-47 c18 -129 12 -124 101 -93 32 11 62 20 67 20 8 0 48 -82 48 -99 0 -4 -29
-23 -65 -42 -36 -18 -65 -38 -65 -42 0 -8 39 -66 75 -112 15 -18 17 -17 75 40
l60 59 37 -34 c21 -19 40 -36 42 -37 2 -2 -17 -34 -42 -72 l-45 -68 53 -28
c30 -15 58 -24 63 -21 5 3 17 31 26 63 24 87 25 88 85 73 l52 -12 -6 -37 c-13
-76 -17 -97 -21 -113 -5 -16 3 -18 72 -18 l77 0 -7 77 c-4 42 -8 81 -9 86 -1
6 23 16 53 24 35 9 63 23 76 39 18 22 22 24 28 9 3 -9 3 -22 -1 -28 -4 -7 1
-6 11 2 16 13 17 12 11 -15 -5 -20 -4 -25 3 -15 7 10 11 10 17 1 4 -7 1 -17
-6 -22 -11 -8 -10 -9 4 -4 9 3 17 0 17 -6 0 -6 8 -21 17 -32 10 -12 14 -18 9
-14 -5 4 -21 1 -37 -7 -35 -18 -58 -20 -42 -4 9 9 8 15 -3 26 -8 8 -12 23 -9
33 3 10 1 21 -5 25 -6 4 -9 13 -6 21 3 8 0 11 -10 7 -7 -3 -14 -11 -14 -17 0
-11 22 -94 35 -134 3 -9 20 -5 60 15 30 15 55 31 55 35 0 5 -18 38 -40 74 -22
36 -40 67 -40 69 0 1 20 19 44 38 l43 36 49 -59 c27 -33 52 -60 56 -60 8 0 78
95 78 106 0 5 -29 28 -65 52 l-64 43 24 50 c12 28 26 50 29 50 4 1 36 -11 72
-27 35 -15 67 -25 70 -21 8 8 32 150 27 160 -2 4 -60 7 -129 7 -120 0 -125 1
-119 20 10 31 -13 130 -45 197 -35 70 -104 139 -177 173 -66 32 -179 37 -249
12z m238 -50 c63 -27 134 -100 166 -170 22 -48 27 -71 27 -147 0 -78 -4 -98
-29 -152 -33 -72 -98 -138 -170 -173 -100 -48 -245 -23 -337 58 -47 41 -95
133 -108 208 -28 155 60 319 205 380 73 31 172 29 246 -4z m-475 -375 c-3 -7
1 -24 9 -38 16 -28 18 -42 5 -34 -5 3 -13 0 -17 -6 -4 -8 -3 -9 4 -5 14 9 46
-39 38 -59 -3 -8 -2 -14 2 -12 14 4 53 -45 48 -60 -6 -14 -4 -14 11 -2 15 12
16 12 10 -3 -4 -12 -2 -15 8 -12 7 3 18 -4 25 -15 6 -12 17 -21 25 -21 20 0
19 -24 -2 -41 -15 -12 -16 -12 -8 1 6 11 3 11 -11 -2 -18 -16 -68 -22 -59 -7
5 7 -44 33 -64 34 -8 0 -36 -21 -62 -48 l-47 -47 -15 22 c-8 13 -25 34 -37 47
l-23 23 24 -7 c22 -7 23 -7 9 10 -14 17 -14 18 10 5 21 -10 23 -10 13 1 -10
10 -7 16 20 27 17 9 36 14 40 13 5 -1 6 3 2 9 -3 5 -1 10 6 10 7 0 9 3 6 7 -4
3 -2 12 4 20 9 9 8 13 0 13 -6 0 -11 10 -11 23 0 13 -12 37 -26 54 -25 31 -26
31 -62 16 -20 -8 -52 -16 -72 -18 l-35 -3 -3 49 -3 49 88 1 c103 1 131 3 140
12 10 11 16 8 10 -6z m816 -4 c112 2 117 0 117 -44 0 -11 -4 -18 -10 -14 -5 3
-9 -5 -8 -17 2 -46 0 -48 -27 -36 -13 6 -22 15 -18 21 3 5 0 7 -8 5 -8 -3 -28
0 -46 7 -27 12 -34 11 -51 -5 -11 -10 -23 -16 -26 -12 -4 3 -4 -1 -1 -10 4 -9
1 -27 -6 -40 -15 -28 -21 -70 -8 -62 5 3 9 -3 9 -12 0 -10 3 -14 6 -11 4 4 24
-7 45 -24 38 -30 48 -68 21 -77 -7 -2 -12 -11 -12 -20 0 -14 -2 -15 -9 -2 -6
8 -7 19 -3 25 3 5 -2 4 -12 -4 -9 -8 -16 -10 -14 -5 3 10 -52 81 -58 77 -10
-7 -34 -2 -34 8 0 5 5 7 10 4 6 -3 10 -1 10 4 0 14 -17 14 -25 1 -4 -6 -12 -7
-18 -4 -8 5 -8 3 1 -7 12 -13 18 -38 5 -25 -4 3 -22 -8 -40 -26 -40 -38 -55
-30 -59 32 -1 23 0 39 3 36 3 -3 12 2 18 11 11 15 15 16 31 3 18 -14 18 -14 4
4 -13 16 -12 20 3 31 9 7 17 15 17 19 0 3 11 24 25 46 14 22 25 46 25 55 0 8
4 15 10 15 5 0 9 8 8 18 -3 35 2 57 10 45 5 -9 40 -12 115 -10z m-276 -268 c0
-8 -4 -12 -9 -9 -4 3 -8 9 -8 15 0 5 4 9 8 9 5 0 9 -7 9 -15z m-7 -45 c14 -35
8 -49 -15 -30 -17 14 -21 35 -4 24 8 -5 8 -1 0 14 -13 25 -14 35 -2 28 4 -3
14 -19 21 -36z m-39 18 c1 -7 1 -17 0 -22 -1 -4 5 -19 14 -32 12 -19 13 -22 1
-18 -8 3 -19 19 -25 35 -5 16 -12 29 -15 29 -3 0 -1 -12 5 -27 5 -14 8 -32 5
-40 -9 -22 -43 -15 -50 10 -11 40 -7 57 13 57 11 0 23 5 26 10 9 14 25 12 26
-2z m-292 -33 c-22 -37 -46 -45 -56 -20 -7 21 6 33 17 15 7 -11 11 -8 21 13 7
15 18 27 25 27 10 0 7 -10 -7 -35z m51 -14 c0 -22 -4 -43 -10 -46 -5 -3 -10 1
-10 10 0 12 -6 15 -21 10 -19 -6 -20 -5 -9 17 32 60 50 63 50 9z m33 -6 c-4
-23 -2 -35 6 -35 6 0 11 3 12 8 5 47 20 68 43 59 22 -9 20 -29 -1 -25 -12 2
-19 -4 -21 -19 -2 -13 2 -23 8 -23 7 0 10 7 6 15 -3 9 0 15 9 15 17 0 20 -36
5 -45 -6 -4 -19 -3 -28 1 -9 4 -27 6 -39 5 -20 -2 -23 2 -23 32 0 18 3 37 7
40 15 16 21 5 16 -28z m126 -1 c13 -37 7 -60 -9 -34 -7 10 -10 11 -10 3 0 -7
-4 -13 -10 -13 -5 0 -10 18 -10 40 0 51 21 53 39 4z m-228 -41 c2 1 -3 -5 -11
-14 -8 -9 -19 -14 -25 -11 -5 3 -3 -2 5 -12 13 -16 12 -20 -9 -37 -14 -12 -18
-19 -10 -20 10 0 10 -2 2 -5 -7 -3 -9 -12 -6 -20 3 -8 0 -14 -6 -14 -6 0 -11
4 -11 10 0 5 -6 7 -13 4 -8 -3 -20 2 -27 11 -11 13 -10 18 4 33 9 10 16 23 16
29 0 5 7 10 15 10 8 0 15 -5 15 -10 0 -6 3 -7 6 -4 4 4 1 14 -6 23 -11 13 -11
17 -1 24 8 4 10 13 6 20 -4 7 4 6 23 -4 16 -8 31 -14 33 -13z m189 -33 c-12
-8 -11 -10 5 -10 17 0 17 -2 5 -10 -8 -5 -10 -10 -3 -10 7 0 13 -23 15 -58 l3
-57 -36 -3 c-48 -3 -65 16 -50 59 6 17 8 36 4 42 -3 6 -1 7 5 3 14 -9 15 -5 2
28 -7 20 -6 24 5 20 8 -3 22 -1 32 4 22 13 33 5 13 -8z"/>
<path d="M662 1085 c-97 -42 -162 -142 -162 -250 0 -90 24 -151 85 -211 58
-58 124 -81 201 -70 121 16 223 129 224 246 l0 45 -155 0 -155 0 0 -49 0 -48
99 4 c110 4 113 2 52 -56 -43 -41 -121 -48 -170 -14 -49 34 -72 69 -78 122
-10 89 46 176 123 192 40 8 106 -11 129 -36 14 -16 31 -20 77 -20 32 0 58 2
58 5 0 11 -49 81 -71 102 -14 12 -41 29 -61 38 -46 19 -152 19 -196 0z m153
-17 c4 -4 14 -4 23 -1 8 4 13 2 9 -3 -3 -5 6 -14 19 -21 16 -7 22 -8 17 -1 -3
7 -1 8 5 4 7 -4 12 -13 12 -20 0 -8 10 -17 23 -21 12 -3 17 -9 10 -11 -7 -3
-9 -12 -7 -19 5 -11 -1 -12 -28 -5 -18 6 -35 15 -36 20 -2 6 -8 8 -13 4 -5 -3
-9 0 -9 6 0 6 -4 9 -9 6 -5 -4 -11 -1 -13 4 -3 10 -38 11 -124 7 -21 -1 -30
-6 -27 -14 3 -7 0 -13 -7 -13 -15 0 -56 -51 -52 -64 2 -4 -3 -6 -10 -3 -8 2
-14 -2 -15 -12 -10 -97 -10 -128 -1 -138 5 -7 7 -16 4 -21 -8 -14 85 -114 100
-108 8 3 14 1 14 -4 0 -18 128 -3 155 18 13 11 21 23 17 27 -4 5 1 5 10 2 10
-3 17 -3 17 1 -3 20 2 33 11 27 6 -3 7 1 4 9 -4 9 -1 16 6 16 9 0 7 7 -5 20
-10 11 -22 17 -26 14 -5 -3 -9 -1 -9 5 0 5 -28 7 -71 4 -52 -3 -74 -1 -80 9
-14 22 12 28 116 28 142 0 144 -1 132 -55 -6 -24 -13 -42 -17 -40 -4 2 -12 -7
-19 -21 -7 -17 -8 -23 0 -19 6 4 5 -2 -2 -13 -7 -12 -16 -19 -20 -16 -4 2 -9
-6 -12 -17 -4 -15 -11 -20 -22 -15 -9 3 -13 2 -10 -3 7 -13 -3 -18 -70 -36
-51 -13 -62 -13 -87 -1 -16 8 -26 10 -23 5 9 -13 -25 1 -60 25 -16 12 -33 21
-37 21 -5 0 -8 3 -8 8 0 4 0 12 0 18 0 5 5 7 12 3 7 -4 8 -3 4 4 -4 7 -17 17
-29 22 -21 11 -21 11 -3 -4 11 -9 15 -16 9 -16 -6 0 -15 6 -21 13 -12 14 -27
76 -23 96 1 7 -2 10 -8 6 -7 -4 -11 8 -11 34 0 22 5 43 11 46 6 4 8 13 5 21
-7 19 45 124 61 124 7 0 13 4 13 9 0 5 14 14 30 21 17 7 30 17 30 22 0 6 7 8
15 5 8 -4 17 -3 19 2 6 9 102 9 111 -1z"/>
<path d="M585 990 c-3 -5 -1 -10 4 -10 6 0 11 5 11 10 0 6 -2 10 -4 10 -3 0
-8 -4 -11 -10z"/>
<path d="M848 435 c2 -14 8 -25 13 -25 10 0 11 12 3 34 -10 25 -22 19 -16 -9z"/>
<path d="M630 429 c0 -5 5 -7 10 -4 6 3 10 8 10 11 0 2 -4 4 -10 4 -5 0 -10
-5 -10 -11z"/>
<path d="M790 420 c0 -5 5 -10 11 -10 5 0 7 5 4 10 -3 6 -8 10 -11 10 -2 0 -4
-4 -4 -10z"/>
<path d="M550 380 c0 -5 5 -10 11 -10 5 0 7 5 4 10 -3 6 -8 10 -11 10 -2 0 -4
-4 -4 -10z"/>
<path d="M500 300 c0 -5 5 -10 11 -10 5 0 7 5 4 10 -3 6 -8 10 -11 10 -2 0 -4
-4 -4 -10z"/>
<path d="M237 1204 c-4 -4 3 -19 15 -33 l23 -25 -27 17 c-43 27 -42 2 1 -26
33 -22 41 -24 51 -12 10 12 5 21 -22 50 -18 20 -37 33 -41 29z"/>
<path d="M1211 1181 l-33 -27 33 -47 c28 -38 38 -46 59 -42 25 4 25 4 3 -7
-13 -6 -23 -15 -23 -20 0 -13 27 -9 40 7 7 8 19 15 26 15 15 0 18 18 8 44 -6
15 -10 14 -41 -4 -20 -11 -38 -19 -40 -16 -9 9 7 37 17 31 5 -3 10 -1 10 4 0
6 9 11 20 11 18 0 19 3 10 21 -11 20 -12 20 -45 -5 -41 -31 -45 -32 -45 -5 0
15 5 19 15 15 9 -3 15 0 15 10 0 11 6 14 16 10 11 -4 14 -1 12 11 -5 26 -20
25 -57 -6z m109 -95 c0 -3 -4 -8 -10 -11 -5 -3 -10 -1 -10 4 0 6 5 11 10 11 6
0 10 -2 10 -4z"/>
<path d="M186 1125 c-3 -10 7 -27 27 -45 38 -35 51 -38 42 -9 -5 14 -3 19 3
15 6 -3 13 -2 17 3 3 6 -12 19 -34 31 -48 24 -47 24 -55 5z m49 -25 c3 -5 2
-10 -4 -10 -5 0 -13 5 -16 10 -3 6 -2 10 4 10 5 0 13 -4 16 -10z"/>
<path d="M1133 1115 c0 -8 4 -12 9 -9 5 3 6 10 3 15 -9 13 -12 11 -12 -6z"/>
<path d="M150 1059 c-7 -11 -10 -22 -8 -23 19 -14 88 -44 88 -38 0 4 3 17 6
29 5 17 -1 25 -25 37 -39 21 -48 20 -61 -5z m70 -30 c0 -5 -11 -3 -25 3 -14 6
-25 15 -25 19 0 5 11 3 25 -3 14 -6 25 -15 25 -19z"/>
<path d="M1310 1037 c-46 -27 -44 -26 -37 -34 8 -7 87 27 87 38 0 18 -18 16
-50 -4z"/>
<path d="M1323 1001 c-43 -15 -61 -38 -23 -28 24 6 27 -8 4 -17 -8 -3 -13 -10
-10 -15 3 -5 26 -1 50 7 44 16 55 38 13 27 -21 -6 -21 -5 -3 9 30 24 14 33
-31 17z"/>
<path d="M127 1003 c-17 -16 -5 -42 24 -52 47 -16 59 -14 59 13 0 18 -8 27
-31 35 -37 13 -43 13 -52 4z m53 -28 c16 -9 19 -14 9 -15 -8 0 -24 7 -35 15
-24 18 -7 19 26 0z"/>
<path d="M107 933 c-18 -17 -5 -42 28 -53 39 -13 50 -9 58 19 3 14 -1 22 -15
27 -28 8 -35 -3 -12 -22 18 -14 18 -15 -6 -8 -29 7 -51 24 -32 24 7 0 12 5 12
10 0 11 -23 14 -33 3z"/>
<path d="M1340 933 c-24 -9 -40 -25 -35 -33 3 -5 18 -2 33 6 15 7 34 14 42 13
10 0 11 -2 3 -6 -7 -2 -13 -11 -13 -20 0 -8 6 -13 13 -10 6 2 12 15 12 28 0
25 -23 34 -55 22z"/>
<path d="M1324 885 c-18 -15 -18 -15 5 -13 14 2 26 9 29 16 5 17 -10 15 -34
-3z"/>
<path d="M476 88 c2 -40 4 -43 33 -46 17 -2 31 1 31 7 0 6 -11 11 -25 11 -14
0 -25 5 -25 10 0 6 11 10 25 10 14 0 25 5 25 10 0 6 -12 10 -26 10 -14 0 -23
4 -20 9 3 5 15 7 26 4 11 -3 20 0 20 6 0 6 -15 11 -33 11 -33 0 -33 -1 -31
-42z"/>
<path d="M624 117 c-8 -23 -1 -70 12 -74 7 -3 11 10 9 37 -2 45 -11 61 -21 37z"/>
<path d="M700 116 c0 -8 -8 -13 -17 -12 -14 1 -18 -7 -18 -29 0 -26 4 -30 28
-31 25 -1 27 1 27 42 0 24 -4 44 -10 44 -5 0 -10 -6 -10 -14z m0 -41 c0 -8 -4
-15 -10 -15 -5 0 -10 7 -10 15 0 8 5 15 10 15 6 0 10 -7 10 -15z"/>
<path d="M812 118 c-15 -15 -16 -32 -2 -23 6 4 10 -7 10 -24 0 -17 5 -31 10
-31 6 0 10 20 10 45 0 46 -7 54 -28 33z"/>
<path d="M866 114 c-4 -10 -2 -22 3 -27 5 -5 7 -15 5 -22 -8 -19 15 -29 32
-14 23 19 14 73 -12 77 -13 2 -24 -4 -28 -14z m30 -21 c-10 -10 -19 5 -10 18
6 11 8 11 12 0 2 -7 1 -15 -2 -18z m4 -23 c0 -5 -5 -10 -11 -10 -5 0 -7 5 -4
10 3 6 8 10 11 10 2 0 4 -4 4 -10z"/>
<path d="M934 115 c-7 -18 14 -47 27 -39 5 3 9 0 9 -6 0 -7 -8 -9 -21 -5 -15
5 -20 3 -17 -6 15 -44 65 1 54 47 -7 27 -43 33 -52 9z m36 -16 c0 -5 -4 -9
-10 -9 -5 0 -10 7 -10 16 0 8 5 12 10 9 6 -3 10 -10 10 -16z"/>
<path d="M1004 116 c-9 -24 4 -49 21 -42 8 3 15 0 15 -5 0 -7 -9 -9 -21 -6
-13 3 -19 1 -16 -6 2 -7 12 -12 23 -12 16 0 19 7 19 40 0 30 -4 41 -18 43 -9
2 -20 -4 -23 -12z m36 -17 c0 -5 -7 -9 -15 -9 -15 0 -20 12 -9 23 8 8 24 -1
24 -14z"/>
<path d="M555 100 c-9 -14 3 -30 23 -31 10 -1 7 -4 -8 -9 -22 -6 -23 -8 -7
-15 20 -9 47 0 47 16 0 6 -9 13 -20 16 -11 3 -20 9 -20 14 0 5 7 6 15 3 8 -4
15 -1 15 5 0 14 -37 15 -45 1z"/>
<path d="M730 50 c0 -5 4 -10 9 -10 6 0 13 5 16 10 3 6 -1 10 -9 10 -9 0 -16
-4 -16 -10z"/>
</g>
</svg>
